<svg xmlns="http://www.w3.org/2000/svg" x="0px" y="0px" viewBox="0 0 100 125" enable-background="new 0 0 100 100" xml:space="preserve"><path d="M83.271,56.93c-0.08,0.065-0.08,0.065-0.08,0.065c-0.09,0.065,0.106,1.071,0.435,2.235l1.009,4.754  c0.182,1.191,0.331,2.959,0.331,3.918c0,0.963,0,8.957,0,10.166v2.598c0,1.211-0.988,2.199-2.196,2.199H59.191  c-1.209,0-3.187,0-4.396,0h-2.598c-1.209,0-3.186,0-4.396,0h-2.597c-1.209,0-3.187,0-4.395,0H17.233  c-1.208,0-2.197-0.988-2.197-2.199v-2.598c0-1.209,0-9.203,0-10.166c0-0.959,0.149-2.725,0.333-3.918l1.008-4.754  c0.328-1.164,0.523-2.17,0.435-2.235c0,0,0,0-0.081-0.063C2.417,45.73,5.123,26.755,6.454,22.831  c1.328-3.919,5.251-9.125,5.251-2.584c0,16.074,13.25,23.267,14.147,22.456c0,0,9.81-8.875,17.155-10.653  c2.263-0.545,4.598-0.861,6.994-0.861c2.396,0,4.729,0.315,6.993,0.86c7.343,1.777,17.154,10.652,17.154,10.652  c0.896,0.812,14.146-5.282,14.146-22.455c0-6.542,3.924-1.336,5.254,2.584C94.878,26.754,97.583,45.729,83.271,56.93z" fill="#ff9900"/></svg>